<svg width="220" height="64" viewBox="0 0 220 64" xmlns="http://www.w3.org/2000/svg">
  <g transform="translate(0, 4)">
    <path d="M2 14 L14 8 L20 18 L14 22 L14 48 L2 48 Z" fill="#c49a2a"/>
    <path d="M54 14 L42 8 L36 18 L42 22 L42 48 L54 48 Z" fill="#c49a2a"/>
    <path d="M14 8 L20 2 L28 6 L36 6 L42 8 L36 18 L42 22 L14 22 L20 18 Z" fill="#1a1205"/>
    <rect x="14" y="22" width="28" height="26" rx="1" fill="#1a1205"/>
    <path d="M22 6 Q28 12 34 6" fill="none" stroke="#c49a2a" stroke-width="2" stroke-linecap="round"/>
    <rect x="14" y="28" width="28" height="4" fill="#c49a2a"/>
  </g>
  <text x="68" y="28" font-family="'Barlow Condensed', sans-serif" font-weight="900" font-size="28" letter-spacing="1" fill="#1a1205">JERSEY</text>
  <text x="68" y="52" font-family="'Barlow Condensed', sans-serif" font-weight="400" font-size="20" letter-spacing="4" fill="#c49a2a">WALA</text>
  <circle cx="210" cy="44" r="4" fill="#c49a2a"/>
</svg>